<svg width="332" height="86" viewBox="0 0 332 86" fill="none" xmlns="http://www.w3.org/2000/svg">
<path d="M65.4 62.36V1.99999H83.64V86H57.36L20.52 25.76H18.48V86H0.24V1.99999H24.84V2.11999H26.52L63.24 62.36H65.4ZM132.734 0.679997C157.214 0.679997 175.814 15.8 175.814 43.4C175.814 71 157.214 86 132.734 86C108.254 86 89.6541 71.48 89.6541 43.4C89.6541 15.8 108.254 0.679997 132.734 0.679997ZM132.734 67.4C147.254 67.4 157.934 59.48 157.934 43.4C157.934 26.96 147.254 19.28 132.734 19.28C118.214 19.28 107.534 26.72 107.534 43.4C107.534 60.08 118.214 67.4 132.734 67.4ZM216.705 69.32L239.625 1.99999H260.865L230.505 86H201.105L170.865 1.99999H191.985L214.905 69.32H216.705ZM301.309 2.11999L331.309 86H312.349L307.429 72.2H264.589L259.549 86H240.709L270.709 2.11999H301.309ZM270.469 55.52H301.429L288.349 18.68H283.669L270.469 55.52Z" fill="#098178"/>
</svg>
